<mxfile host="app.diagrams.net" modified="2023-06-04T20:02:21.184Z" agent="Mozilla/5.0 (Windows NT 10.0; Win64; x64; rv:109.0) Gecko/20100101 Firefox/113.0" etag="XDSpC8Ob6nmnedJfV12f" version="21.2.9" type="device">
  <diagram id="tYPHbK1kJAwYhiZg6krK" name="Page-1">
    <mxGraphModel dx="606" dy="374" grid="1" gridSize="10" guides="1" tooltips="1" connect="1" arrows="1" fold="1" page="1" pageScale="1" pageWidth="827" pageHeight="1169" math="0" shadow="0">
      <root>
        <mxCell id="0" />
        <mxCell id="1" parent="0" />
        <mxCell id="I8_SGhkJe4jmLoIYcksJ-7" style="edgeStyle=orthogonalEdgeStyle;rounded=0;orthogonalLoop=1;jettySize=auto;html=1;entryX=0.5;entryY=1;entryDx=0;entryDy=0;exitX=0.5;exitY=0;exitDx=0;exitDy=0;" parent="1" source="I8_SGhkJe4jmLoIYcksJ-1" target="I8_SGhkJe4jmLoIYcksJ-5" edge="1">
          <mxGeometry relative="1" as="geometry" />
        </mxCell>
        <mxCell id="fLt1ZkgAdMPkYuRn15NB-7" value="I2C" style="edgeLabel;html=1;align=center;verticalAlign=middle;resizable=0;points=[];" parent="I8_SGhkJe4jmLoIYcksJ-7" vertex="1" connectable="0">
          <mxGeometry x="-0.2172" relative="1" as="geometry">
            <mxPoint x="-14" y="-27" as="offset" />
          </mxGeometry>
        </mxCell>
        <mxCell id="I8_SGhkJe4jmLoIYcksJ-20" style="edgeStyle=orthogonalEdgeStyle;rounded=0;orthogonalLoop=1;jettySize=auto;html=1;exitX=0;exitY=0.25;exitDx=0;exitDy=0;entryX=1;entryY=0.5;entryDx=0;entryDy=0;" parent="1" source="I8_SGhkJe4jmLoIYcksJ-1" target="fLt1ZkgAdMPkYuRn15NB-2" edge="1">
          <mxGeometry relative="1" as="geometry">
            <mxPoint x="310" y="300" as="targetPoint" />
          </mxGeometry>
        </mxCell>
        <mxCell id="fLt1ZkgAdMPkYuRn15NB-5" value="&lt;div&gt;SPI&lt;/div&gt;" style="edgeLabel;html=1;align=center;verticalAlign=middle;resizable=0;points=[];" parent="I8_SGhkJe4jmLoIYcksJ-20" vertex="1" connectable="0">
          <mxGeometry x="-0.2329" relative="1" as="geometry">
            <mxPoint as="offset" />
          </mxGeometry>
        </mxCell>
        <mxCell id="fLt1ZkgAdMPkYuRn15NB-13" style="edgeStyle=orthogonalEdgeStyle;rounded=0;orthogonalLoop=1;jettySize=auto;html=1;exitX=0.25;exitY=0;exitDx=0;exitDy=0;entryX=0.5;entryY=1;entryDx=0;entryDy=0;" parent="1" source="I8_SGhkJe4jmLoIYcksJ-1" target="5wyOwEhhCZ5imgbM7BRu-31" edge="1">
          <mxGeometry relative="1" as="geometry" />
        </mxCell>
        <mxCell id="fLt1ZkgAdMPkYuRn15NB-14" value="WiFi" style="edgeLabel;html=1;align=center;verticalAlign=middle;resizable=0;points=[];" parent="fLt1ZkgAdMPkYuRn15NB-13" vertex="1" connectable="0">
          <mxGeometry x="0.25" relative="1" as="geometry">
            <mxPoint x="13" as="offset" />
          </mxGeometry>
        </mxCell>
        <mxCell id="I8_SGhkJe4jmLoIYcksJ-1" value="&amp;nbsp;ESP32 Wroom" style="whiteSpace=wrap;html=1;aspect=fixed;" parent="1" vertex="1">
          <mxGeometry x="384" y="270" width="120" height="120" as="geometry" />
        </mxCell>
        <mxCell id="I8_SGhkJe4jmLoIYcksJ-3" style="edgeStyle=orthogonalEdgeStyle;rounded=0;orthogonalLoop=1;jettySize=auto;html=1;entryX=0.5;entryY=1;entryDx=0;entryDy=0;" parent="1" source="I8_SGhkJe4jmLoIYcksJ-2" target="I8_SGhkJe4jmLoIYcksJ-1" edge="1">
          <mxGeometry relative="1" as="geometry" />
        </mxCell>
        <mxCell id="I8_SGhkJe4jmLoIYcksJ-10" value="DC" style="edgeLabel;html=1;align=center;verticalAlign=middle;resizable=0;points=[];" parent="I8_SGhkJe4jmLoIYcksJ-3" vertex="1" connectable="0">
          <mxGeometry x="0.2655" relative="1" as="geometry">
            <mxPoint as="offset" />
          </mxGeometry>
        </mxCell>
        <mxCell id="5wyOwEhhCZ5imgbM7BRu-1" style="edgeStyle=orthogonalEdgeStyle;rounded=0;orthogonalLoop=1;jettySize=auto;html=1;entryX=0;entryY=0.5;entryDx=0;entryDy=0;" parent="1" source="I8_SGhkJe4jmLoIYcksJ-2" target="I8_SGhkJe4jmLoIYcksJ-34" edge="1">
          <mxGeometry relative="1" as="geometry" />
        </mxCell>
        <mxCell id="I8_SGhkJe4jmLoIYcksJ-2" value="&lt;div&gt;Régulateur 3.3V&lt;/div&gt;" style="rounded=0;whiteSpace=wrap;html=1;" parent="1" vertex="1">
          <mxGeometry x="384" y="450" width="120" height="60" as="geometry" />
        </mxCell>
        <mxCell id="I8_SGhkJe4jmLoIYcksJ-5" value="&lt;div&gt;Tactile&lt;/div&gt;" style="text;html=1;strokeColor=none;fillColor=none;align=center;verticalAlign=middle;whiteSpace=wrap;rounded=0;" parent="1" vertex="1">
          <mxGeometry x="400" y="130" width="60" height="30" as="geometry" />
        </mxCell>
        <mxCell id="xUs7PLZkIUKOXHY0VuvA-14" value="" style="edgeStyle=none;curved=1;rounded=0;orthogonalLoop=1;jettySize=auto;html=1;fontSize=12;startSize=8;endSize=8;" edge="1" parent="1" source="I8_SGhkJe4jmLoIYcksJ-12" target="xUs7PLZkIUKOXHY0VuvA-13">
          <mxGeometry relative="1" as="geometry">
            <Array as="points">
              <mxPoint x="550" y="560" />
            </Array>
          </mxGeometry>
        </mxCell>
        <mxCell id="xUs7PLZkIUKOXHY0VuvA-16" value="&lt;div&gt;&lt;br&gt;&lt;/div&gt;&lt;div&gt;&lt;br&gt;&lt;/div&gt;&lt;div&gt;&lt;br&gt;&lt;/div&gt;" style="edgeLabel;html=1;align=center;verticalAlign=middle;resizable=0;points=[];fontSize=16;" vertex="1" connectable="0" parent="xUs7PLZkIUKOXHY0VuvA-14">
          <mxGeometry x="0.161" relative="1" as="geometry">
            <mxPoint as="offset" />
          </mxGeometry>
        </mxCell>
        <mxCell id="xUs7PLZkIUKOXHY0VuvA-17" value="&lt;div style=&quot;font-size: 14px;&quot;&gt;&lt;font style=&quot;font-size: 14px;&quot;&gt;3.2V à 4.2V&lt;/font&gt;&lt;/div&gt;" style="edgeLabel;html=1;align=center;verticalAlign=middle;resizable=0;points=[];fontSize=16;" vertex="1" connectable="0" parent="xUs7PLZkIUKOXHY0VuvA-14">
          <mxGeometry x="0.161" y="1" relative="1" as="geometry">
            <mxPoint x="13" as="offset" />
          </mxGeometry>
        </mxCell>
        <mxCell id="I8_SGhkJe4jmLoIYcksJ-12" value="Batterie" style="text;html=1;strokeColor=none;fillColor=none;align=center;verticalAlign=middle;whiteSpace=wrap;rounded=0;" parent="1" vertex="1">
          <mxGeometry x="590" y="545" width="60" height="30" as="geometry" />
        </mxCell>
        <mxCell id="I8_SGhkJe4jmLoIYcksJ-17" value="Speaker" style="rounded=0;whiteSpace=wrap;html=1;" parent="1" vertex="1">
          <mxGeometry x="114" y="250" width="56" height="30" as="geometry" />
        </mxCell>
        <mxCell id="I8_SGhkJe4jmLoIYcksJ-22" style="edgeStyle=orthogonalEdgeStyle;rounded=0;orthogonalLoop=1;jettySize=auto;html=1;entryX=0;entryY=0.5;entryDx=0;entryDy=0;" parent="1" source="I8_SGhkJe4jmLoIYcksJ-21" target="I8_SGhkJe4jmLoIYcksJ-1" edge="1">
          <mxGeometry relative="1" as="geometry" />
        </mxCell>
        <mxCell id="5wyOwEhhCZ5imgbM7BRu-10" value="IO" style="edgeLabel;html=1;align=center;verticalAlign=middle;resizable=0;points=[];" parent="I8_SGhkJe4jmLoIYcksJ-22" vertex="1" connectable="0">
          <mxGeometry x="-0.3635" y="-1" relative="1" as="geometry">
            <mxPoint x="-9" y="-1" as="offset" />
          </mxGeometry>
        </mxCell>
        <mxCell id="I8_SGhkJe4jmLoIYcksJ-21" value="Switch&amp;nbsp;" style="rounded=0;whiteSpace=wrap;html=1;" parent="1" vertex="1">
          <mxGeometry x="114" y="340" width="100" height="40" as="geometry" />
        </mxCell>
        <mxCell id="I8_SGhkJe4jmLoIYcksJ-27" style="edgeStyle=orthogonalEdgeStyle;rounded=0;orthogonalLoop=1;jettySize=auto;html=1;entryX=0.5;entryY=1;entryDx=0;entryDy=0;" parent="1" source="I8_SGhkJe4jmLoIYcksJ-23" target="I8_SGhkJe4jmLoIYcksJ-12" edge="1">
          <mxGeometry relative="1" as="geometry">
            <Array as="points">
              <mxPoint x="289" y="610" />
              <mxPoint x="620" y="610" />
            </Array>
          </mxGeometry>
        </mxCell>
        <mxCell id="xUs7PLZkIUKOXHY0VuvA-18" value="&lt;font style=&quot;font-size: 14px;&quot;&gt;Environ 3.5V&lt;/font&gt;" style="edgeLabel;html=1;align=center;verticalAlign=middle;resizable=0;points=[];fontSize=16;" vertex="1" connectable="0" parent="I8_SGhkJe4jmLoIYcksJ-27">
          <mxGeometry x="0.0251" relative="1" as="geometry">
            <mxPoint as="offset" />
          </mxGeometry>
        </mxCell>
        <mxCell id="I8_SGhkJe4jmLoIYcksJ-23" value="Circuit de &lt;br&gt;Recharge" style="rounded=0;whiteSpace=wrap;html=1;" parent="1" vertex="1">
          <mxGeometry x="244" y="545" width="90" height="40" as="geometry" />
        </mxCell>
        <mxCell id="5wyOwEhhCZ5imgbM7BRu-18" style="edgeStyle=orthogonalEdgeStyle;rounded=0;orthogonalLoop=1;jettySize=auto;html=1;entryX=0;entryY=0.5;entryDx=0;entryDy=0;" parent="1" source="I8_SGhkJe4jmLoIYcksJ-28" target="I8_SGhkJe4jmLoIYcksJ-23" edge="1">
          <mxGeometry relative="1" as="geometry">
            <Array as="points">
              <mxPoint x="149" y="565" />
            </Array>
          </mxGeometry>
        </mxCell>
        <mxCell id="5wyOwEhhCZ5imgbM7BRu-23" value="DC 5V" style="edgeLabel;html=1;align=center;verticalAlign=middle;resizable=0;points=[];" parent="5wyOwEhhCZ5imgbM7BRu-18" vertex="1" connectable="0">
          <mxGeometry x="0.142" y="1" relative="1" as="geometry">
            <mxPoint as="offset" />
          </mxGeometry>
        </mxCell>
        <mxCell id="5wyOwEhhCZ5imgbM7BRu-19" value="" style="edgeStyle=orthogonalEdgeStyle;rounded=0;orthogonalLoop=1;jettySize=auto;html=1;" parent="1" source="I8_SGhkJe4jmLoIYcksJ-28" target="5wyOwEhhCZ5imgbM7BRu-13" edge="1">
          <mxGeometry relative="1" as="geometry" />
        </mxCell>
        <mxCell id="5wyOwEhhCZ5imgbM7BRu-20" style="edgeStyle=orthogonalEdgeStyle;rounded=0;orthogonalLoop=1;jettySize=auto;html=1;entryX=0.25;entryY=1;entryDx=0;entryDy=0;exitX=0.75;exitY=1;exitDx=0;exitDy=0;" parent="1" source="I8_SGhkJe4jmLoIYcksJ-28" target="I8_SGhkJe4jmLoIYcksJ-2" edge="1">
          <mxGeometry relative="1" as="geometry">
            <Array as="points">
              <mxPoint x="167" y="530" />
              <mxPoint x="414" y="530" />
            </Array>
          </mxGeometry>
        </mxCell>
        <mxCell id="5wyOwEhhCZ5imgbM7BRu-22" value="DC 5V" style="edgeLabel;html=1;align=center;verticalAlign=middle;resizable=0;points=[];" parent="5wyOwEhhCZ5imgbM7BRu-20" vertex="1" connectable="0">
          <mxGeometry x="-0.1083" y="1" relative="1" as="geometry">
            <mxPoint as="offset" />
          </mxGeometry>
        </mxCell>
        <mxCell id="I8_SGhkJe4jmLoIYcksJ-28" value="Port MICRO USB" style="rounded=0;whiteSpace=wrap;html=1;" parent="1" vertex="1">
          <mxGeometry x="114" y="460" width="70" height="40" as="geometry" />
        </mxCell>
        <mxCell id="I8_SGhkJe4jmLoIYcksJ-32" value="" style="edgeStyle=orthogonalEdgeStyle;rounded=0;orthogonalLoop=1;jettySize=auto;html=1;" parent="1" source="I8_SGhkJe4jmLoIYcksJ-31" target="I8_SGhkJe4jmLoIYcksJ-28" edge="1">
          <mxGeometry relative="1" as="geometry" />
        </mxCell>
        <mxCell id="I8_SGhkJe4jmLoIYcksJ-31" value="5V" style="text;html=1;strokeColor=none;fillColor=none;align=center;verticalAlign=middle;whiteSpace=wrap;rounded=0;" parent="1" vertex="1">
          <mxGeometry x="134" y="410" width="30" height="30" as="geometry" />
        </mxCell>
        <mxCell id="fLt1ZkgAdMPkYuRn15NB-10" style="edgeStyle=orthogonalEdgeStyle;rounded=0;orthogonalLoop=1;jettySize=auto;html=1;entryX=0;entryY=0.75;entryDx=0;entryDy=0;" parent="1" source="I8_SGhkJe4jmLoIYcksJ-33" target="I8_SGhkJe4jmLoIYcksJ-1" edge="1">
          <mxGeometry relative="1" as="geometry" />
        </mxCell>
        <mxCell id="fLt1ZkgAdMPkYuRn15NB-11" value="IO" style="edgeLabel;html=1;align=center;verticalAlign=middle;resizable=0;points=[];" parent="fLt1ZkgAdMPkYuRn15NB-10" vertex="1" connectable="0">
          <mxGeometry x="-0.5" y="1" relative="1" as="geometry">
            <mxPoint as="offset" />
          </mxGeometry>
        </mxCell>
        <mxCell id="I8_SGhkJe4jmLoIYcksJ-33" value="Reset Module" style="rounded=0;whiteSpace=wrap;html=1;" parent="1" vertex="1">
          <mxGeometry x="219" y="390" width="110" height="40" as="geometry" />
        </mxCell>
        <mxCell id="I8_SGhkJe4jmLoIYcksJ-34" value="LED d&#39;alim" style="rounded=0;whiteSpace=wrap;html=1;" parent="1" vertex="1">
          <mxGeometry x="590" y="460" width="110" height="40" as="geometry" />
        </mxCell>
        <mxCell id="5wyOwEhhCZ5imgbM7BRu-4" style="edgeStyle=orthogonalEdgeStyle;rounded=0;orthogonalLoop=1;jettySize=auto;html=1;" parent="1" source="5wyOwEhhCZ5imgbM7BRu-2" target="I8_SGhkJe4jmLoIYcksJ-1" edge="1">
          <mxGeometry relative="1" as="geometry" />
        </mxCell>
        <mxCell id="5wyOwEhhCZ5imgbM7BRu-7" value="IO" style="edgeLabel;html=1;align=center;verticalAlign=middle;resizable=0;points=[];" parent="5wyOwEhhCZ5imgbM7BRu-4" vertex="1" connectable="0">
          <mxGeometry x="0.1662" y="1" relative="1" as="geometry">
            <mxPoint as="offset" />
          </mxGeometry>
        </mxCell>
        <mxCell id="5wyOwEhhCZ5imgbM7BRu-2" value="LED verte" style="rounded=0;whiteSpace=wrap;html=1;" parent="1" vertex="1">
          <mxGeometry x="590" y="310" width="110" height="40" as="geometry" />
        </mxCell>
        <mxCell id="5wyOwEhhCZ5imgbM7BRu-5" style="edgeStyle=orthogonalEdgeStyle;rounded=0;orthogonalLoop=1;jettySize=auto;html=1;entryX=1;entryY=0.75;entryDx=0;entryDy=0;" parent="1" source="5wyOwEhhCZ5imgbM7BRu-3" target="I8_SGhkJe4jmLoIYcksJ-1" edge="1">
          <mxGeometry relative="1" as="geometry" />
        </mxCell>
        <mxCell id="5wyOwEhhCZ5imgbM7BRu-6" value="IO" style="edgeLabel;html=1;align=center;verticalAlign=middle;resizable=0;points=[];" parent="5wyOwEhhCZ5imgbM7BRu-5" vertex="1" connectable="0">
          <mxGeometry x="-0.3151" y="1" relative="1" as="geometry">
            <mxPoint x="15" y="-1" as="offset" />
          </mxGeometry>
        </mxCell>
        <mxCell id="5wyOwEhhCZ5imgbM7BRu-3" value="LED Bleu" style="rounded=0;whiteSpace=wrap;html=1;" parent="1" vertex="1">
          <mxGeometry x="590" y="370" width="110" height="40" as="geometry" />
        </mxCell>
        <mxCell id="5wyOwEhhCZ5imgbM7BRu-11" value="Capteurs" style="text;html=1;strokeColor=none;fillColor=none;align=center;verticalAlign=middle;whiteSpace=wrap;rounded=0;" parent="1" vertex="1">
          <mxGeometry x="124" y="220" width="60" height="30" as="geometry" />
        </mxCell>
        <mxCell id="5wyOwEhhCZ5imgbM7BRu-16" style="edgeStyle=orthogonalEdgeStyle;rounded=0;orthogonalLoop=1;jettySize=auto;html=1;entryX=0.25;entryY=1;entryDx=0;entryDy=0;" parent="1" source="5wyOwEhhCZ5imgbM7BRu-13" target="I8_SGhkJe4jmLoIYcksJ-1" edge="1">
          <mxGeometry relative="1" as="geometry">
            <Array as="points">
              <mxPoint x="360" y="480" />
              <mxPoint x="360" y="420" />
              <mxPoint x="414" y="420" />
            </Array>
          </mxGeometry>
        </mxCell>
        <mxCell id="fLt1ZkgAdMPkYuRn15NB-1" value="RS232" style="edgeLabel;html=1;align=center;verticalAlign=middle;resizable=0;points=[];" parent="5wyOwEhhCZ5imgbM7BRu-16" vertex="1" connectable="0">
          <mxGeometry x="-0.1253" y="1" relative="1" as="geometry">
            <mxPoint as="offset" />
          </mxGeometry>
        </mxCell>
        <mxCell id="5wyOwEhhCZ5imgbM7BRu-21" value="" style="edgeStyle=orthogonalEdgeStyle;rounded=0;orthogonalLoop=1;jettySize=auto;html=1;" parent="1" source="5wyOwEhhCZ5imgbM7BRu-13" target="I8_SGhkJe4jmLoIYcksJ-28" edge="1">
          <mxGeometry relative="1" as="geometry">
            <Array as="points">
              <mxPoint x="204" y="480" />
              <mxPoint x="204" y="480" />
            </Array>
          </mxGeometry>
        </mxCell>
        <mxCell id="fLt1ZkgAdMPkYuRn15NB-12" style="edgeStyle=orthogonalEdgeStyle;rounded=0;orthogonalLoop=1;jettySize=auto;html=1;entryX=0.5;entryY=1;entryDx=0;entryDy=0;" parent="1" source="5wyOwEhhCZ5imgbM7BRu-13" target="I8_SGhkJe4jmLoIYcksJ-33" edge="1">
          <mxGeometry relative="1" as="geometry" />
        </mxCell>
        <mxCell id="5wyOwEhhCZ5imgbM7BRu-13" value="USB to Serial Converter" style="rounded=0;whiteSpace=wrap;html=1;" parent="1" vertex="1">
          <mxGeometry x="224" y="460" width="100" height="40" as="geometry" />
        </mxCell>
        <mxCell id="5wyOwEhhCZ5imgbM7BRu-24" value="" style="endArrow=classic;html=1;rounded=0;entryX=1;entryY=0.5;entryDx=0;entryDy=0;exitX=0;exitY=0;exitDx=0;exitDy=0;" parent="1" source="I8_SGhkJe4jmLoIYcksJ-1" target="5wyOwEhhCZ5imgbM7BRu-11" edge="1">
          <mxGeometry width="50" height="50" relative="1" as="geometry">
            <mxPoint x="384" y="290" as="sourcePoint" />
            <mxPoint x="284" y="190" as="targetPoint" />
            <Array as="points">
              <mxPoint x="370" y="270" />
              <mxPoint x="284" y="270" />
              <mxPoint x="284" y="235" />
            </Array>
          </mxGeometry>
        </mxCell>
        <mxCell id="5wyOwEhhCZ5imgbM7BRu-30" value="ESP NOW" style="edgeLabel;html=1;align=center;verticalAlign=middle;resizable=0;points=[];" parent="5wyOwEhhCZ5imgbM7BRu-24" vertex="1" connectable="0">
          <mxGeometry x="-0.7348" relative="1" as="geometry">
            <mxPoint x="-27" as="offset" />
          </mxGeometry>
        </mxCell>
        <mxCell id="5wyOwEhhCZ5imgbM7BRu-26" value="Porte" style="text;html=1;strokeColor=none;fillColor=none;align=center;verticalAlign=middle;whiteSpace=wrap;rounded=0;" parent="1" vertex="1">
          <mxGeometry x="124" y="180" width="60" height="30" as="geometry" />
        </mxCell>
        <mxCell id="5wyOwEhhCZ5imgbM7BRu-29" value="" style="endArrow=classic;html=1;rounded=0;entryX=1;entryY=0.5;entryDx=0;entryDy=0;" parent="1" target="5wyOwEhhCZ5imgbM7BRu-26" edge="1">
          <mxGeometry width="50" height="50" relative="1" as="geometry">
            <mxPoint x="284" y="240" as="sourcePoint" />
            <mxPoint x="334" y="190" as="targetPoint" />
            <Array as="points">
              <mxPoint x="284" y="195" />
            </Array>
          </mxGeometry>
        </mxCell>
        <mxCell id="5wyOwEhhCZ5imgbM7BRu-31" value="Application Mobile" style="text;html=1;strokeColor=none;fillColor=none;align=center;verticalAlign=middle;whiteSpace=wrap;rounded=0;" parent="1" vertex="1">
          <mxGeometry x="290" y="140" width="60" height="30" as="geometry" />
        </mxCell>
        <mxCell id="5wyOwEhhCZ5imgbM7BRu-33" value="&lt;font style=&quot;font-size: 18px;&quot;&gt;&lt;b&gt;Architecture Électronique&lt;/b&gt;&lt;/font&gt;" style="text;html=1;strokeColor=none;fillColor=none;align=center;verticalAlign=middle;whiteSpace=wrap;rounded=0;" parent="1" vertex="1">
          <mxGeometry x="284" y="40" width="320" height="30" as="geometry" />
        </mxCell>
        <mxCell id="fLt1ZkgAdMPkYuRn15NB-3" value="" style="edgeStyle=orthogonalEdgeStyle;rounded=0;orthogonalLoop=1;jettySize=auto;html=1;entryX=1;entryY=0.5;entryDx=0;entryDy=0;" parent="1" source="fLt1ZkgAdMPkYuRn15NB-2" target="I8_SGhkJe4jmLoIYcksJ-17" edge="1">
          <mxGeometry relative="1" as="geometry">
            <Array as="points">
              <mxPoint x="240" y="290" />
              <mxPoint x="240" y="265" />
            </Array>
          </mxGeometry>
        </mxCell>
        <mxCell id="fLt1ZkgAdMPkYuRn15NB-2" value="&lt;div&gt;Enregistreur&lt;/div&gt;&lt;div&gt;ISD1760SY&lt;br&gt;&lt;/div&gt;" style="rounded=0;whiteSpace=wrap;html=1;" parent="1" vertex="1">
          <mxGeometry x="250" y="280" width="90" height="40" as="geometry" />
        </mxCell>
        <mxCell id="fLt1ZkgAdMPkYuRn15NB-22" style="edgeStyle=orthogonalEdgeStyle;rounded=0;orthogonalLoop=1;jettySize=auto;html=1;entryX=1;entryY=0.25;entryDx=0;entryDy=0;" parent="1" source="fLt1ZkgAdMPkYuRn15NB-19" target="I8_SGhkJe4jmLoIYcksJ-1" edge="1">
          <mxGeometry relative="1" as="geometry" />
        </mxCell>
        <mxCell id="fLt1ZkgAdMPkYuRn15NB-23" value="SPI" style="edgeLabel;html=1;align=center;verticalAlign=middle;resizable=0;points=[];" parent="fLt1ZkgAdMPkYuRn15NB-22" vertex="1" connectable="0">
          <mxGeometry x="0.4451" y="-2" relative="1" as="geometry">
            <mxPoint x="15" y="-23" as="offset" />
          </mxGeometry>
        </mxCell>
        <mxCell id="fLt1ZkgAdMPkYuRn15NB-19" value="Module SD card reader" style="text;html=1;strokeColor=none;fillColor=none;align=center;verticalAlign=middle;whiteSpace=wrap;rounded=0;" parent="1" vertex="1">
          <mxGeometry x="590" y="260" width="110" height="30" as="geometry" />
        </mxCell>
        <mxCell id="xUs7PLZkIUKOXHY0VuvA-1" value="&lt;div&gt;Écran LCD RGB&lt;/div&gt;" style="text;html=1;strokeColor=none;fillColor=none;align=center;verticalAlign=middle;whiteSpace=wrap;rounded=0;" vertex="1" parent="1">
          <mxGeometry x="480" y="130" width="60" height="30" as="geometry" />
        </mxCell>
        <mxCell id="xUs7PLZkIUKOXHY0VuvA-2" style="edgeStyle=orthogonalEdgeStyle;rounded=0;orthogonalLoop=1;jettySize=auto;html=1;entryX=0.5;entryY=1;entryDx=0;entryDy=0;" edge="1" parent="1" target="xUs7PLZkIUKOXHY0VuvA-1">
          <mxGeometry relative="1" as="geometry">
            <mxPoint x="480" y="270" as="sourcePoint" />
            <mxPoint x="480" y="180" as="targetPoint" />
          </mxGeometry>
        </mxCell>
        <mxCell id="xUs7PLZkIUKOXHY0VuvA-4" value="&lt;div&gt;SPI&lt;/div&gt;" style="edgeLabel;html=1;align=center;verticalAlign=middle;resizable=0;points=[];" vertex="1" connectable="0" parent="xUs7PLZkIUKOXHY0VuvA-2">
          <mxGeometry x="-0.2172" relative="1" as="geometry">
            <mxPoint x="29" y="-21" as="offset" />
          </mxGeometry>
        </mxCell>
        <mxCell id="xUs7PLZkIUKOXHY0VuvA-7" value="Micro" style="rounded=0;whiteSpace=wrap;html=1;" vertex="1" parent="1">
          <mxGeometry x="114" y="290" width="56" height="30" as="geometry" />
        </mxCell>
        <mxCell id="xUs7PLZkIUKOXHY0VuvA-10" value="wave" style="endArrow=classic;html=1;rounded=0;fontSize=12;startSize=8;endSize=8;curved=0;entryX=1;entryY=0.5;entryDx=0;entryDy=0;exitX=0;exitY=0.75;exitDx=0;exitDy=0;" edge="1" parent="1" source="fLt1ZkgAdMPkYuRn15NB-2" target="xUs7PLZkIUKOXHY0VuvA-7">
          <mxGeometry x="0.0588" width="50" height="50" relative="1" as="geometry">
            <mxPoint x="230" y="310" as="sourcePoint" />
            <mxPoint x="300" y="290" as="targetPoint" />
            <Array as="points">
              <mxPoint x="230" y="310" />
              <mxPoint x="230" y="305" />
            </Array>
            <mxPoint as="offset" />
          </mxGeometry>
        </mxCell>
        <mxCell id="xUs7PLZkIUKOXHY0VuvA-15" value="" style="edgeStyle=none;curved=1;rounded=0;orthogonalLoop=1;jettySize=auto;html=1;fontSize=12;startSize=8;endSize=8;" edge="1" parent="1" source="xUs7PLZkIUKOXHY0VuvA-13" target="I8_SGhkJe4jmLoIYcksJ-2">
          <mxGeometry relative="1" as="geometry" />
        </mxCell>
        <mxCell id="xUs7PLZkIUKOXHY0VuvA-13" value="Régulateur 5V" style="rounded=0;whiteSpace=wrap;html=1;" vertex="1" parent="1">
          <mxGeometry x="389" y="540" width="110" height="40" as="geometry" />
        </mxCell>
      </root>
    </mxGraphModel>
  </diagram>
</mxfile>
